<svg xmlns="http://www.w3.org/2000/svg"><path d="M82.956,8.743H15.13c-0.911,0-1.65,0.739-1.65,1.65v40.539v3.121v35.006c0,0.912,0.739,1.65,1.65,1.65h67.823  c0.911,0,1.649-0.738,1.649-1.65V54.053v-3.121V10.393C84.605,9.482,83.867,8.743,82.956,8.743z M16.783,12.043h64.524v36.266  c-1.594-2.042-3.584-4.525-7.066-4.525c-0.289,0-0.553,0.034-0.818,0.066C70.77,32.849,60.85,24.648,49.044,24.648  c-11.788,0-21.696,8.177-24.366,19.154c-4.366,0.149-6.53,2.059-7.896,3.864V12.043z M70.824,49.726  c0,12.009-9.771,21.778-21.78,21.778s-21.779-9.77-21.779-21.778c0-0.484,0.021-0.963,0.053-1.439  c0.281,0.308,0.581,0.667,0.924,1.09c1.637,2.011,3.879,4.766,8.649,4.766c4.384,0,6.332-2.327,7.897-4.197  c1.391-1.661,2.396-2.862,4.94-2.862c2.668,0,3.516,1.104,4.797,2.774c1.463,1.909,3.285,4.284,8.039,4.284  c4.129,0,6.195-2.453,7.855-4.425c0.137-0.162,0.265-0.311,0.393-0.459C70.815,49.415,70.824,49.569,70.824,49.726z M27.901,44.507  c2.345-9.495,10.933-16.559,21.143-16.559c10.43,0,19.166,7.37,21.286,17.173c-0.945,0.715-1.715,1.617-2.434,2.47  c-1.469,1.744-2.738,3.25-5.332,3.25c-3.127,0-4.089-1.255-5.422-2.992c-1.389-1.812-3.117-4.066-7.414-4.066  c-4.085,0-5.962,2.242-7.47,4.043c-1.41,1.684-2.523,3.014-5.367,3.014c-3.202,0-4.604-1.723-6.09-3.548  C29.982,46.286,29.092,45.201,27.901,44.507z M81.307,87.409H16.783V53.11c0.757-0.644,1.311-1.487,1.799-2.239  c1.141-1.76,2.232-3.427,5.517-3.732c-0.088,0.851-0.133,1.713-0.133,2.587c0,13.828,11.25,25.078,25.079,25.078  c13.829,0,25.079-11.25,25.079-25.078c0-0.885-0.047-1.759-0.137-2.621c0.084-0.006,0.164-0.021,0.254-0.021  c1.793,0,2.962,1.328,4.541,3.354c0.746,0.955,1.553,1.971,2.525,2.699V87.409z"/></svg>